<svg width="42" height="38" viewBox="0 0 42 38" fill="none" xmlns="http://www.w3.org/2000/svg">
<path d="M33.5003 8.58333H8.50033V0.25H33.5003V8.58333ZM33.5003 20.0417C34.0906 20.0417 34.5857 19.8417 34.9857 19.4417C35.3857 19.0417 35.585 18.5472 35.5837 17.9583C35.5837 17.3681 35.3837 16.8729 34.9837 16.4729C34.5837 16.0729 34.0892 15.8736 33.5003 15.875C32.91 15.875 32.4149 16.075 32.0149 16.475C31.6149 16.875 31.4156 17.3694 31.417 17.9583C31.417 18.5486 31.617 19.0438 32.017 19.4438C32.417 19.8438 32.9114 20.0431 33.5003 20.0417ZM29.3337 33.5833V25.25H12.667V33.5833H29.3337ZM33.5003 37.75H8.50033V29.4167H0.166992V16.9167C0.166992 15.1458 0.774631 13.6611 1.98991 12.4625C3.20519 11.2639 4.68088 10.6653 6.41699 10.6667H35.5837C37.3545 10.6667 38.8392 11.266 40.0378 12.4646C41.2364 13.6632 41.8351 15.1472 41.8337 16.9167V29.4167H33.5003V37.75Z" fill="#FFB36A"/>
</svg>
