<svg width="38" height="42" viewBox="0 0 38 42" fill="none" xmlns="http://www.w3.org/2000/svg">
<path d="M31.5 41.8333C29.7639 41.8333 28.2882 41.2257 27.0729 40.0104C25.8576 38.7951 25.25 37.3194 25.25 35.5833C25.25 35.3402 25.2674 35.0882 25.3021 34.827C25.3368 34.5659 25.3889 34.3319 25.4583 34.125L10.7708 25.5833C10.1806 26.1041 9.52083 26.5125 8.79167 26.8083C8.0625 27.1041 7.29861 27.2513 6.5 27.25C4.76389 27.25 3.28819 26.6423 2.07292 25.427C0.857639 24.2118 0.25 22.7361 0.25 21C0.25 19.2638 0.857639 17.7882 2.07292 16.5729C3.28819 15.3576 4.76389 14.75 6.5 14.75C7.29861 14.75 8.0625 14.8979 8.79167 15.1937C9.52083 15.4895 10.1806 15.8972 10.7708 16.4166L25.4583 7.87496C25.3889 7.66663 25.3368 7.4326 25.3021 7.17288C25.2674 6.91315 25.25 6.66107 25.25 6.41663C25.25 4.68051 25.8576 3.20482 27.0729 1.98954C28.2882 0.774265 29.7639 0.166626 31.5 0.166626C33.2361 0.166626 34.7118 0.774265 35.9271 1.98954C37.1424 3.20482 37.75 4.68051 37.75 6.41663C37.75 8.15274 37.1424 9.62843 35.9271 10.8437C34.7118 12.059 33.2361 12.6666 31.5 12.6666C30.7014 12.6666 29.9375 12.5194 29.2083 12.225C28.4792 11.9305 27.8194 11.5222 27.2292 11L12.5417 19.5416C12.6111 19.75 12.6632 19.9847 12.6979 20.2458C12.7326 20.5069 12.75 20.7583 12.75 21C12.75 21.243 12.7326 21.4951 12.6979 21.7562C12.6632 22.0173 12.6111 22.2513 12.5417 22.4583L27.2292 31C27.8194 30.4791 28.4792 30.0715 29.2083 29.777C29.9375 29.4826 30.7014 29.3347 31.5 29.3333C33.2361 29.3333 34.7118 29.9409 35.9271 31.1562C37.1424 32.3715 37.75 33.8472 37.75 35.5833C37.75 37.3194 37.1424 38.7951 35.9271 40.0104C34.7118 41.2257 33.2361 41.8333 31.5 41.8333Z" fill="#FFB36A"/>
</svg>
