<svg width="34" height="37" viewBox="0 0 34 37" fill="none" xmlns="http://www.w3.org/2000/svg">
<path d="M33.7504 6.5C33.7504 7.64583 32.8129 8.58333 31.6671 8.58333H29.5837V10.6667C29.5837 11.8125 28.6462 12.75 27.5004 12.75C26.3546 12.75 25.4171 11.8125 25.4171 10.6667V8.58333H23.3337C22.1879 8.58333 21.2504 7.64583 21.2504 6.5C21.2504 5.35417 22.1879 4.41667 23.3337 4.41667H25.4171V2.33333C25.4171 1.1875 26.3546 0.25 27.5004 0.25C28.6462 0.25 29.5837 1.1875 29.5837 2.33333V4.41667H31.6671C32.8129 4.41667 33.7504 5.35417 33.7504 6.5ZM29.5837 34.5833C29.5837 36.0833 28.0629 37.0833 26.6879 36.5L15.0004 31.5L3.3129 36.5C2.99645 36.6375 2.65068 36.6937 2.30699 36.6636C1.96329 36.6334 1.63258 36.5179 1.34487 36.3275C1.05717 36.1371 0.821606 35.8778 0.659575 35.5732C0.497544 35.2686 0.414183 34.9283 0.417064 34.5833V4.41667C0.417064 2.125 2.29206 0.25 4.58373 0.25H19.1671C17.9009 1.94088 17.1785 3.97664 17.0956 6.08742C17.0127 8.1982 17.5733 10.2843 18.703 12.0693C19.8327 13.8542 21.4782 15.2537 23.4214 16.0822C25.3646 16.9107 27.5136 17.129 29.5837 16.7083V34.5833Z" fill="#FFB36A"/>
</svg>
