<svg width="166" height="32" viewBox="0 0 166 32" fill="none" xmlns="http://www.w3.org/2000/svg">
<g clip-path="url(#clip0_2701_2307)">
<g clip-path="url(#clip1_2701_2307)">
<g clip-path="url(#clip2_2701_2307)">
<g clip-path="url(#clip3_2701_2307)">
<g clip-path="url(#clip4_2701_2307)">
<path d="M23.6013 9.91841C24.0925 9.91841 24.6657 9.99204 25.3207 10.1393C25.9757 10.2865 26.4547 10.4436 26.7576 10.6105V13.8206H25.3944C24.7803 12.4463 23.9451 11.7591 22.8889 11.7591C22.4632 11.7591 22.0743 11.923 21.7222 12.2509C21.3701 12.5808 21.0918 13.0353 20.8871 13.6145C20.6824 14.1937 20.58 14.8416 20.58 15.5582C20.58 16.373 20.6824 17.1162 20.8871 17.7877C21.0918 18.4611 21.4045 18.9961 21.8254 19.3927C22.2479 19.7913 22.7702 19.9906 23.3925 19.9906C24.1539 19.9906 25.2347 19.539 26.6348 18.6358L27.1629 19.6519L24.9031 21.7576C24.5265 21.8852 24.1662 21.9716 23.8223 22.0168C23.4785 22.06 23.1059 22.0816 22.7047 22.0816C21.7713 22.0816 20.9427 21.8313 20.219 21.3306C19.4935 20.8299 18.9302 20.1398 18.529 19.2602C18.1278 18.3826 17.9272 17.3842 17.9272 16.2651C17.9272 15.1165 18.2261 14.0533 18.8238 13.0755C19.4215 12.0997 20.1666 11.3291 21.059 10.7636C21.9515 10.2002 22.7989 9.91841 23.6013 9.91841ZM33.9914 9.91841C34.9575 9.91841 35.809 10.1687 36.5459 10.6694C37.2828 11.1701 37.8518 11.8622 38.253 12.7457C38.6542 13.6292 38.8548 14.6305 38.8548 15.7497C38.8548 16.8982 38.5494 17.9585 37.9386 18.9304C37.3295 19.9022 36.5746 20.6699 35.6739 21.2334C34.7733 21.7989 33.9218 22.0816 33.1194 22.0816C32.1614 22.0816 31.3156 21.8332 30.582 21.3365C29.8501 20.8417 29.281 20.1526 28.8749 19.269C28.4704 18.3855 28.2682 17.3842 28.2682 16.2651C28.2682 15.1165 28.5712 14.0533 29.177 13.0755C29.7829 12.0997 30.5362 11.3291 31.4368 10.7636C32.3375 10.2002 33.189 9.91841 33.9914 9.91841ZM33.279 11.7591C32.8451 11.7591 32.448 11.923 32.0877 12.2509C31.7275 12.5808 31.4426 13.0353 31.233 13.6145C31.025 14.1937 30.921 14.8416 30.921 15.5582C30.921 16.4221 31.0274 17.2075 31.2403 17.9143C31.4532 18.6211 31.7782 19.1856 32.2155 19.6077C32.6543 20.0298 33.1931 20.2409 33.8317 20.2409C34.2656 20.2409 34.6628 20.076 35.023 19.7461C35.3833 19.4183 35.6698 18.9647 35.8827 18.3855C36.0956 17.8063 36.202 17.1584 36.202 16.4418C36.202 15.5779 36.0956 14.7896 35.8827 14.0769C35.6698 13.3661 35.3423 12.8016 34.9002 12.3834C34.4581 11.9672 33.9177 11.7591 33.279 11.7591ZM45.8528 9.91841C46.344 9.91841 46.918 9.99204 47.5746 10.1393C48.2296 10.2865 48.7086 10.4436 49.0116 10.6105V13.8206H47.6459C47.0318 12.4463 46.1975 11.7591 45.1429 11.7591C44.7155 11.7591 44.3266 11.923 43.9762 12.2509C43.6225 12.5808 43.3433 13.0353 43.1386 13.6145C42.9339 14.1937 42.8315 14.8416 42.8315 15.5582C42.8315 16.373 42.9339 17.1162 43.1386 17.7877C43.3433 18.4611 43.6569 18.9961 44.0793 19.3927C44.5018 19.7913 45.0242 19.9906 45.6464 19.9906C46.4063 19.9906 47.487 19.539 48.8887 18.6358L49.4168 19.6519L47.1546 21.7576C46.778 21.8852 46.4185 21.9716 46.0763 22.0168C45.7308 22.06 45.3582 22.0816 44.9587 22.0816C44.0253 22.0816 43.1959 21.8313 42.4705 21.3306C41.745 20.8299 41.1826 20.1398 40.783 19.2602C40.3818 18.3826 40.1812 17.3842 40.1812 16.2651C40.1812 15.1165 40.4792 14.0533 41.0753 13.0755C41.673 12.0997 42.4189 11.3291 43.313 10.7636C44.2054 10.2002 45.052 9.91841 45.8528 9.91841ZM53.9831 20.2556L55.3709 20.7121L54.9288 21.7871H50.3969V20.8447L51.5514 19.6519V11.7296L50.1758 11.2731L50.618 10.2129H55.1498V11.1406L53.9831 12.3481V20.2556ZM60.9589 20.7121L60.5168 21.7871H57.7903L54.3884 15.9853L57.864 12.3039L56.4271 11.2731L56.8692 10.2129H60.6765V11.1406L56.7955 15.2637L59.6448 19.9906L60.9589 20.7121ZM71.0788 9.94786V14.1004L70.3051 14.498L68.5611 11.4793H67.5295V20.2998L68.9173 20.7121L68.4752 21.7871H63.9433V20.8447L65.0978 19.755V11.4793H64.0907L62.3467 14.498L61.5853 14.1004V9.94786L62.531 10.2129H70.1209L71.0788 9.94786ZM81.6654 20.7121L81.2233 21.7871H76.3967V20.8447L77.7968 19.9022L77.109 17.8848H73.4123L72.8228 19.6224L74.6282 20.7121L74.1861 21.7871H70.1455V20.8447L71.5333 19.6077L74.5791 10.6841L76.9617 9.93314L80.4005 19.9906L81.6654 20.7121ZM76.6915 16.6332L75.2668 12.4365L73.8422 16.6332H76.6915ZM87.0816 20.7121L86.6394 21.7871H82.1076V20.8447L83.262 19.6519V11.7296L81.8865 11.2731L82.3286 10.2129H86.8605V11.1406L85.6937 12.3481V20.2556L87.0816 20.7121ZM96.8674 22.0669L95.9094 21.8018H87.9388V20.8594L89.0932 19.7697V11.6855L87.7177 11.2731L88.1599 10.2129H92.6917V11.1406L91.525 12.2303V20.5207H94.1655L96.0937 17.2075L96.8674 17.5903V22.0669ZM112.551 20.7121L112.109 21.7871H107.577V20.8447L108.731 19.6519V16.6479H104.777V20.2556L106.164 20.7121L105.722 21.7871H101.19V20.8447L102.345 19.6519V11.7296L100.969 11.2731L101.412 10.2129H105.943V11.1406L104.777 12.3481V15.3963H108.731V11.7296L107.356 11.2731L107.798 10.2129H112.33V11.1406L111.163 12.3481V20.2556L112.551 20.7121ZM122.241 22.0521L121.283 21.7871H113.41V20.8447L114.565 19.755V11.7444L113.189 11.2731L113.632 10.2129H121.16L122.118 9.94786V13.8059L121.344 14.2035L119.821 11.4793H116.997V15.249H118.323L119.22 13.6587H120.006V17.8996L119.109 18.4297L118.299 16.5007H116.997V20.5207H119.711L121.467 17.502L122.241 17.8848V22.0521ZM134.471 20.7121L134.029 21.7871H129.202V20.8447L130.602 19.9022L129.914 17.8848H126.218L125.628 19.6224L127.433 20.7121L126.991 21.7871H122.951V20.8447L124.339 19.6077L127.384 10.6841L129.767 9.93314L133.206 19.9906L134.471 20.7121ZM129.497 16.6332L128.072 12.4365L126.647 16.6332H129.497ZM144.21 11.1406L142.834 12.3776L139.776 21.3159L137.406 22.0669L133.955 11.9947L132.69 11.2731L133.132 10.2129H137.971V11.1406L136.559 12.083L139.101 19.5488L141.533 12.3776L139.727 11.2731L140.182 10.2129H144.21V11.1406ZM153.581 22.0521L152.623 21.7871H144.75V20.8447L145.905 19.755V11.7444L144.529 11.2731L144.971 10.2129H152.5L153.458 9.94786V13.8059L152.684 14.2035L151.161 11.4793H148.336V15.249H149.663L150.559 13.6587H151.345V17.8996L150.449 18.4297L149.638 16.5007H148.336V20.5207H151.051L152.807 17.502L153.581 17.8848V22.0521ZM165.246 11.1701L164.079 12.3776V21.8165H162.9L157.164 14.2182V19.9464L159.056 20.7268L158.614 21.8018H154.846V20.8594L155.998 19.6666V12.2156L154.622 11.2731L155.064 10.2129H157.312L162.9 17.5903V12.0536L161.033 11.2731L161.478 10.2129H165.246V11.1701Z" fill="#FFFDF6"/>
</g>
</g>
</g>
</g>
<g clip-path="url(#clip5_2701_2307)">
<g clip-path="url(#clip6_2701_2307)">
<path d="M6.92915 7.0829L5.21482 3.89189L9.23333 0.787497C9.23333 0.787497 5.8971 -0.818675 3.35868 0.803737L2.75448 0.488489L2.74412 1.27852C0.462514 3.37858 0.302368 7.6857 0.302368 7.6857L4.32167 4.58162L5.66525 7.08258H3.14754L5.94676 31.9216H12.7183L15.5175 7.0829H6.92915ZM4.64993 10.9041L4.36284 8.35663H6.34938L7.71819 10.9041H4.64993ZM8.98182 10.9041L7.61355 8.35663H14.3025L14.0154 10.9041H8.98182Z" fill="#FEECAC"/>
</g>
</g>
</g>
<defs>
<clipPath id="clip0_2701_2307">
<rect width="164.938" height="31.8431" fill="white" transform="translate(0.302368 0.0784302)"/>
</clipPath>
<clipPath id="clip1_2701_2307">
<rect width="147.327" height="12.1632" fill="white" transform="translate(17.9125 9.91841)"/>
</clipPath>
<clipPath id="clip2_2701_2307">
<rect width="147.327" height="12.1632" fill="white" transform="translate(17.9125 9.91841)"/>
</clipPath>
<clipPath id="clip3_2701_2307">
<rect width="147.327" height="12.1632" fill="white" transform="translate(17.9125 9.91841)"/>
</clipPath>
<clipPath id="clip4_2701_2307">
<rect width="147.327" height="12.1632" fill="white" transform="translate(17.9125 9.91841)"/>
</clipPath>
<clipPath id="clip5_2701_2307">
<rect width="15.2151" height="31.8431" fill="white" transform="translate(0.302368 0.0784302)"/>
</clipPath>
<clipPath id="clip6_2701_2307">
<rect width="15.2151" height="31.8431" fill="white" transform="translate(0.302368 0.0784302)"/>
</clipPath>
</defs>
</svg>
