<svg width="16" height="26" viewBox="0 0 16 26" fill="none" xmlns="http://www.w3.org/2000/svg">
<path fill-rule="evenodd" clip-rule="evenodd" d="M7.275 0.5C6.6479 0.500031 6.04371 0.735738 5.58226 1.16037C5.12081 1.58501 4.8358 2.16756 4.78375 2.7925L4.305 8.545L2.17 9.9675C1.65633 10.3099 1.23515 10.7738 0.94382 11.3181C0.652496 11.8624 0.500045 12.4702 0.5 13.0875V21.75C0.5 22.7446 0.895088 23.6984 1.59835 24.4017C2.30161 25.1049 3.25544 25.5 4.25 25.5H11.75C12.7446 25.5 13.6984 25.1049 14.4017 24.4017C15.1049 23.6984 15.5 22.7446 15.5 21.75V13.0875C15.5 12.4702 15.3475 11.8624 15.0562 11.3181C14.7649 10.7738 14.3437 10.3099 13.83 9.9675L11.695 8.545L11.2162 2.7925C11.1642 2.16756 10.8792 1.58501 10.4177 1.16037C9.95629 0.735738 9.3521 0.500031 8.725 0.5H7.275ZM13 15.5H8C7.66848 15.5 7.35054 15.6317 7.11612 15.8661C6.8817 16.1005 6.75 16.4185 6.75 16.75C6.75 17.0815 6.8817 17.3995 7.11612 17.6339C7.35054 17.8683 7.66848 18 8 18H13V21.75C13 22.0815 12.8683 22.3995 12.6339 22.6339C12.3995 22.8683 12.0815 23 11.75 23H4.25C3.91848 23 3.60054 22.8683 3.36612 22.6339C3.1317 22.3995 3 22.0815 3 21.75V13.0875C2.99997 12.8818 3.05072 12.6792 3.14776 12.4978C3.24479 12.3163 3.3851 12.1617 3.55625 12.0475L5.69125 10.625C6.00454 10.4162 6.26663 10.1394 6.45797 9.81517C6.64931 9.49093 6.76494 9.12767 6.79625 8.7525L7.275 3H8.725L9.20375 8.7525C9.23506 9.12767 9.35069 9.49093 9.54203 9.81517C9.73337 10.1394 9.99546 10.4162 10.3088 10.625L12.4438 12.0475C12.6149 12.1617 12.7552 12.3163 12.8522 12.4978C12.9493 12.6792 13 12.8818 13 13.0875V15.5Z" fill="#FFB36A"/>
</svg>
