<svg width="19" height="20" viewBox="0 0 19 20" fill="none" xmlns="http://www.w3.org/2000/svg">
<path fill-rule="evenodd" clip-rule="evenodd" d="M9.63631 0.449997C12.518 0.449997 14.8681 2.80015 14.8681 5.68182C14.8681 8.56348 12.518 10.9136 9.63631 10.9136C6.75465 10.9136 4.4045 8.56348 4.4045 5.68182C4.4045 2.80015 6.75465 0.449997 9.63631 0.449997ZM9.63631 10.8136C14.4207 10.8136 18.3227 14.7156 18.2727 19.55L16.4954 19.5C16.4954 15.702 13.4343 12.6409 9.63631 12.6409C5.83829 12.6409 2.77722 15.702 2.72722 19.55L0.949951 19.5C0.949951 14.7156 4.85195 10.8136 9.63631 10.8136ZM9.63632 2.27727C7.74774 2.27727 6.23177 3.79324 6.23177 5.68182C6.23177 7.57039 7.74774 9.08636 9.63632 9.08636C11.5249 9.08636 13.0409 7.57039 13.0409 5.68182C13.0409 3.79324 11.5249 2.27727 9.63632 2.27727Z" fill="#FFF4D1"/>
</svg>
