<svg width="41" height="40" viewBox="0 0 41 40" fill="none" xmlns="http://www.w3.org/2000/svg">
<path d="M37.1343 1.1296C37.0512 1.07293 36.9696 1.0296 36.8881 0.984599C35.8896 0.415881 34.7777 0.12062 33.6496 0.124599H33.6373C32.4033 0.126656 31.1912 0.478091 30.1212 1.14406C29.0512 1.81003 28.1605 2.7674 27.5373 3.92127L27.5189 3.95793C27.0145 4.89993 26.7087 5.95117 26.6235 7.03627L26.622 7.0646H11.8527L10.2004 2.7496C9.82945 1.77287 9.14924 0.971385 8.2819 0.489056C7.41457 0.00672659 6.41693 -0.124857 5.46811 0.117932L5.4958 0.111265L0.501953 1.34127L0.811184 2.81793L5.80503 1.58793C6.4263 1.43454 7.07759 1.52343 7.64433 1.83895C8.21107 2.15446 8.65694 2.6764 8.90349 3.31293L8.90965 3.33293L10.3435 7.06627H0.96503L16.6466 24.0546V36.4929C13.005 36.7729 10.4927 38.0796 10.4927 39.7013V40.0029H25.6066V39.7013C25.6066 38.0813 23.0896 36.7679 19.4527 36.4929V24.0546L29.1189 13.5829C29.422 13.8613 29.7604 14.1196 30.1173 14.3463L30.1512 14.3663C31.7679 15.3622 33.6827 15.6245 35.4773 15.0958C37.272 14.5671 38.8005 13.2905 39.729 11.5447C40.6575 9.79901 40.9105 7.72612 40.4326 5.77897C39.9548 3.83182 38.785 2.16868 37.1789 1.15293L37.145 1.13293L37.1343 1.1296ZM38.6712 6.9746L34.8343 6.98627L36.7435 3.38627C37.7862 4.25763 38.4761 5.53324 38.6681 6.9446L38.6712 6.9746ZM35.5358 2.62627L33.6266 6.23627L31.6973 2.64793C32.314 2.37248 32.9749 2.232 33.642 2.2346C34.3235 2.2346 34.9743 2.37793 35.5696 2.6396L35.5358 2.62627ZM29.2112 5.00793C29.5466 4.37627 29.9743 3.8446 30.4804 3.41627L30.4912 3.40793L32.4204 6.99627L28.5927 7.00793C28.6789 6.2596 28.8973 5.58293 29.2235 4.98127L29.2112 5.00627V5.00793ZM5.66811 9.17627H11.1466L11.9004 11.1546H7.4958L5.66811 9.17627ZM28.582 11.1563H27.3312V11.1663H13.4035L12.6496 9.18793H30.3943L28.582 11.1563ZM31.7281 12.8663L33.6373 9.25627L35.5666 12.8446C34.9927 13.1079 34.325 13.2613 33.625 13.2613C32.942 13.2613 32.2896 13.1163 31.6943 12.8513L31.7281 12.8663ZM38.0527 10.4963C37.7286 11.1103 37.2982 11.6507 36.785 12.0879L36.7743 12.0963L34.845 8.50793L38.6727 8.49793C38.5841 9.21018 38.3694 9.89719 38.0404 10.5213L38.0543 10.4946L38.0527 10.4963Z" fill="#FE9D3F"/>
</svg>
