<svg width="41" height="40" viewBox="0 0 41 40" fill="none" xmlns="http://www.w3.org/2000/svg">
<path fill-rule="evenodd" clip-rule="evenodd" d="M15.091 3.84708C13.4039 4.13628 11.8926 5.06336 10.8703 6.4363C9.84794 7.80924 9.39288 9.52282 9.59936 11.2221L9.6277 11.4554C9.67693 11.8593 9.87224 12.2313 10.1768 12.5012C10.4814 12.771 10.8741 12.9201 11.281 12.9204H14.221L9.2777 35.9921C9.2083 36.3163 9.27054 36.6548 9.45073 36.9332C9.63092 37.2115 9.9143 37.4068 10.2385 37.4762C10.5628 37.5456 10.9013 37.4834 11.1796 37.3032C11.4579 37.123 11.6533 36.8396 11.7227 36.5154L13.296 29.1704H27.7027L29.2777 36.5154C29.3557 36.8306 29.5533 37.103 29.8286 37.2751C30.1039 37.4472 30.4354 37.5054 30.7529 37.4374C31.0704 37.3694 31.3489 37.1805 31.5296 36.9108C31.7103 36.641 31.779 36.3115 31.721 35.9921L26.7777 12.9204H29.7177C30.1252 12.9205 30.5185 12.7713 30.8235 12.5011C31.1284 12.2308 31.3238 11.8583 31.3727 11.4537L31.401 11.2221C31.6075 9.52282 31.1525 7.80924 30.1301 6.4363C29.1078 5.06336 27.5965 4.13628 25.9094 3.84708L25.2877 3.74041C22.1191 3.19721 18.8812 3.19721 15.7127 3.74041L15.091 3.84708ZM24.2494 12.9204H16.7494C16.7497 13.0083 16.7407 13.096 16.7227 13.1821L13.831 26.6704H27.1677L24.2777 13.1821C24.2591 13.0961 24.2496 13.0084 24.2494 12.9204Z" fill="#FE9D3F"/>
</svg>
