<svg width="41" height="40" viewBox="0 0 41 40" fill="none" xmlns="http://www.w3.org/2000/svg">
<path d="M28.834 5C30.1093 4.99993 31.3365 5.48721 32.2644 6.36214C33.1923 7.23707 33.7508 8.43351 33.8257 9.70667L33.834 10V17.25L34.824 16.81C35.8473 16.355 37.0273 17.06 37.1573 18.14L37.1673 18.3333V31.6667C37.1676 32.5076 36.85 33.3176 36.2782 33.9342C35.7063 34.5509 34.9226 34.9286 34.084 34.9917L33.834 35H7.16732C6.32636 35.0003 5.51637 34.6827 4.89974 34.1108C4.2831 33.539 3.90539 32.7553 3.84232 31.9167L3.83398 31.6667V18.3333C3.83398 17.2133 4.95898 16.4217 5.99565 16.7417L6.17898 16.81L7.16732 17.25V10C7.16725 8.72465 7.65453 7.49748 8.52946 6.56957C9.40439 5.64166 10.6008 5.08315 11.874 5.00833L12.1673 5H28.834ZM28.834 8.33333H12.1673C11.7253 8.33333 11.3014 8.50893 10.9888 8.82149C10.6762 9.13405 10.5007 9.55797 10.5007 10V18.7317L20.5007 23.1767L30.5007 18.7317V10C30.5007 9.55797 30.3251 9.13405 30.0125 8.82149C29.6999 8.50893 29.276 8.33333 28.834 8.33333ZM20.5007 13.3333C20.9255 13.3338 21.334 13.4965 21.6429 13.7881C21.9518 14.0797 22.1377 14.4783 22.1626 14.9023C22.1875 15.3264 22.0495 15.744 21.7769 16.0697C21.5042 16.3955 21.1175 16.6048 20.6957 16.655L20.5007 16.6667H17.1673C16.7425 16.6662 16.3339 16.5035 16.025 16.2119C15.7161 15.9203 15.5303 15.5217 15.5054 15.0977C15.4805 14.6736 15.6184 14.256 15.8911 13.9303C16.1637 13.6045 16.5505 13.3952 16.9723 13.345L17.1673 13.3333H20.5007Z" fill="#FE9D3F"/>
</svg>
